<svg width="108" height="89" viewBox="0 0 108 89" fill="none" xmlns="http://www.w3.org/2000/svg">
<g id="Group">
<g id="Group_2">
<path id="Vector" d="M55.1765 0L0 10.6795L53.0561 43.2316L108 33.2043L55.1765 0Z" fill="black"/>
<path id="Vector_2" d="M0 10.6792V12.2281L53.096 46.2558L108 34.6877V33.204L53.0561 43.2313L0 10.6792Z" fill="#2D2D2D"/>
<path id="Vector_3" d="M20.5258 47.2996L19.6816 54.1801C19.6816 54.1801 42.3345 76.4929 74.2865 65.52L74.7784 60.1476C46.5354 65.9439 28.7548 54.7182 20.5258 47.2996Z" fill="#2D2D2D"/>
<g id="Group_3">
<path id="Vector_4" d="M87.7933 83.529C84.8354 80.6513 82.7416 76.4121 81.7445 71.9446C81.6714 71.6104 81.3125 71.7327 81.266 72.018C81.1995 71.912 81.0666 71.8957 80.9536 71.9609C80.9004 71.7326 80.5946 71.6267 80.4816 71.9038C78.4543 76.7219 80.023 82.1676 81.379 86.9367C81.4853 87.3117 81.8243 87.1079 81.718 86.7329C80.6545 82.9991 79.5178 78.8252 80.1626 74.8876C79.8036 79.8605 81.153 84.9475 83.6256 88.8932C83.8051 89.1786 84.0843 88.8362 83.9048 88.5509C81.6581 84.972 80.5016 80.423 80.6212 75.9066C80.6877 77.6838 80.9137 79.461 81.379 81.1322C82.0902 83.7002 83.28 86.1541 84.4632 88.4286C84.636 88.7628 84.9152 88.4204 84.7423 88.0862C83.5991 85.9014 82.6153 83.5535 81.9041 81.0996C81.5983 80.048 81.3989 78.9474 81.2726 77.8306C81.9573 81.4502 83.3797 84.8416 85.427 87.6052C85.6397 87.8987 85.9255 87.6378 85.7062 87.3443C83.4661 84.3198 82.1168 80.4475 81.5584 76.4528C82.3827 80.1947 83.8982 83.7328 85.9056 86.7736C86.1116 87.0834 86.3177 86.7492 86.1116 86.4394C84.1508 83.472 82.8612 80.0072 82.0503 76.355C83.1404 80.1214 84.5496 83.7491 87.0488 86.4312C87.2948 86.6921 87.5606 86.3905 87.3147 86.1296C85.5998 84.2872 84.4698 81.8089 83.5459 79.3143C84.5429 81.4909 85.746 83.529 87.1419 85.3715C87.3612 85.6649 87.5473 85.2002 87.328 84.9149C86.0983 83.2926 85.1611 81.5073 84.2505 79.6078C85.1877 81.1486 86.2778 82.5589 87.5208 83.7573C87.7733 83.9937 88.0459 83.7736 87.7933 83.529Z" fill="#F0C64B"/>
<path id="Vector_5" d="M82.5953 31.4356C81.4454 29.7481 79.89 28.6394 78.2947 27.6855C75.1241 25.8024 71.6012 24.979 68.1647 24.18C63.3058 23.055 58.3405 22.0115 54.3058 18.2533C54.1462 18.1066 54 18.18 53.907 18.3267C53.9003 18.3348 53.8937 18.343 53.887 18.3593C53.887 18.3675 53.8804 18.3675 53.8804 18.3756C53.7807 18.5223 53.7541 18.7343 53.9003 18.9055C56.8582 22.3784 60.8132 24.0904 64.7083 25.3051C68.6433 26.5279 72.6581 27.3594 76.4269 29.2834C76.5465 29.3405 76.6595 29.4057 76.7792 29.4627C76.7991 29.4709 76.9254 29.5443 76.9254 29.5443C77.1182 29.6584 77.3109 29.7807 77.5037 29.8948C78.2083 30.3269 78.8929 30.7671 79.5377 31.3215C80.3087 31.99 81.0266 32.8052 81.5251 33.7998C82.0702 34.884 82.2563 36.1069 82.2364 37.3705C82.2164 38.683 82.017 39.9955 81.8442 41.2836C81.6647 42.6206 81.4985 43.9657 81.3324 45.3108C80.9867 48.0907 80.661 50.8625 80.4151 53.6588C79.8767 59.8056 79.7305 66.0747 80.6344 72.1889C80.7009 72.6455 81.3191 72.5395 81.2925 72.083C80.9402 66.2867 81.3257 60.4741 81.9904 54.7267C82.3228 51.8653 82.7216 49.0201 83.1271 46.175C83.5126 43.501 84.0178 40.8107 84.1906 38.1123C84.3568 35.6503 83.8981 33.3351 82.5953 31.4356Z" fill="#F0C64B"/>
<path id="Vector_6" d="M80.3817 72.6285C80.4415 72.5959 80.4947 72.5633 80.5545 72.5306C80.5878 72.5143 80.5878 72.5143 80.5479 72.5306C80.5678 72.5225 80.5811 72.5143 80.601 72.5062C80.6276 72.498 80.6542 72.4817 80.6808 72.4736C80.8071 72.4247 80.9334 72.3921 81.0663 72.3676C81.0996 72.3594 81.1261 72.3513 81.1594 72.3513C81.073 72.3595 81.1727 72.3513 81.1926 72.3513C81.2591 72.3431 81.3189 72.3431 81.3854 72.3431C81.4519 72.3431 81.5117 72.3513 81.5781 72.3594C81.6114 72.3594 81.638 72.3676 81.6712 72.3758C81.6912 72.3758 81.7044 72.3839 81.7244 72.3839C81.6779 72.3757 81.6779 72.3757 81.7177 72.3839C81.8108 72.4084 81.8906 72.4084 81.977 72.3513C82.0501 72.3024 82.1165 72.2127 82.1365 72.1149C82.1764 71.9192 82.1033 71.642 81.9171 71.6013C81.2857 71.4545 80.6476 71.5442 80.0693 71.8948C79.9098 71.9926 79.8433 72.2616 79.9297 72.4491C80.0228 72.6529 80.2155 72.7263 80.3817 72.6285Z" fill="#D8A32B"/>
<path id="Vector_7" d="M80.3153 71.8228C80.3751 71.7902 80.4283 71.7576 80.4881 71.725C80.5214 71.7087 80.5213 71.7087 80.4815 71.725C80.5014 71.7168 80.5147 71.7087 80.5347 71.7005C80.5612 71.6924 80.5878 71.6761 80.6144 71.6679C80.7407 71.619 80.867 71.5864 80.9999 71.5619C81.0332 71.5538 81.0598 71.5456 81.093 71.5456C81.0066 71.5538 81.1063 71.5456 81.1262 71.5456C81.1927 71.5375 81.2525 71.5375 81.319 71.5375C81.3855 71.5375 81.4453 71.5456 81.5117 71.5538C81.545 71.5538 81.5716 71.5619 81.6048 71.5701C81.6247 71.5701 81.638 71.5783 81.658 71.5783C81.6114 71.5701 81.6115 71.5701 81.6513 71.5783C81.7444 71.6027 81.8242 71.6027 81.9106 71.5456C81.9837 71.4967 82.0502 71.4071 82.0701 71.3092C82.11 71.1136 82.0369 70.8364 81.8507 70.7956C81.2193 70.6489 80.5812 70.7386 80.0029 71.0891C79.8434 71.1869 79.7769 71.456 79.8633 71.6435C79.9564 71.8554 80.1491 71.9288 80.3153 71.8228Z" fill="#D8A32B"/>
</g>
</g>
<g id="Group_4">
<path id="Vector_8" d="M76.4269 43.9571L76.7061 41.2831L53.096 46.256L23.3708 27.2041L22.7327 31.7042L52.4978 50.0795L76.4269 43.9571Z" fill="#3E3E3E"/>
<path id="Vector_9" d="M52.4978 50.0797L22.7327 31.6963L20.5259 47.2916C28.7615 54.7021 46.5355 65.9278 74.7718 60.1397L76.4269 43.9492L52.4978 50.0797Z" fill="black"/>
</g>
</g>
</svg>
